<svg fill="none" height="28" viewBox="0 0 440 59" width="206" xmlns="http://www.w3.org/2000/svg"><g fill="#034ad8"><path d="m98.1654 30.7707c0-8.0512 6.6116-14.6683 14.9486-14.6683 8.049 0 11.787 5.7525 11.787 5.7525l-4.888 4.8902s-2.585-3.4492-6.899-3.4492c-4.023 0-7.19 3.161-7.19 7.4771s3.162 7.4771 7.19 7.4771c4.314 0 6.899-3.4492 6.899-3.4492l4.888 4.8879s-3.738 5.7548-11.787 5.7548c-8.337 0-14.9464-6.6194-14.9464-14.6706zm31.9136-26.17329h7.763v40.27209h-7.763zm13.796 26.17329c0-8.0512 6.61-14.6683 14.947-14.6683 8.339 0 14.949 6.6126 14.949 14.6706 0 8.0558-6.61 14.6706-14.947 14.6706-8.339 0-14.949-6.6194-14.949-14.6706zm22.137 0c0-4.3138-3.162-7.4771-7.19-7.4771-4.026 0-7.19 3.1633-7.19 7.4794s3.164 7.4771 7.19 7.4771c4.028 0 7.19-3.1633 7.19-7.4771zm13.515 2.8797v-16.9716h7.763v15.8188c0 3.4515 2.012 5.4643 5.171 5.4643 3.452 0 6.038-2.5869 6.038-6.3289v-14.9542h7.763v28.1884h-7.763v-4.0279h-.288s-2.876 4.602-8.34 4.602c-5.747 0-10.344-4.602-10.344-11.7932zm32.483-2.8797c0-8.6253 6.035-14.6683 12.651-14.6683 6.035 0 8.911 4.5997 8.911 4.5997h.29v-16.10469h7.764v40.27209h-7.764v-4.0279h-.29s-2.876 4.602-8.913 4.602c-6.614 0-12.649-6.0407-12.649-14.6706zm22.138 0c0-4.3138-3.162-7.4771-7.19-7.4771s-7.189 3.1633-7.189 7.4794 3.161 7.4771 7.189 7.4771 7.19-3.1633 7.19-7.4771zm13.509 0c0-8.0512 6.611-14.6683 14.948-14.6683 8.049 0 11.789 5.7525 11.789 5.7525l-4.887 4.8902s-2.588-3.4492-6.902-3.4492c-4.023 0-7.187 3.161-7.187 7.4771s3.159 7.4771 7.187 7.4771c4.314 0 6.902-3.4492 6.902-3.4492l4.887 4.8879s-3.74 5.7548-11.789 5.7548c-8.333 0-14.948-6.6194-14.948-14.6706zm30.187 6.6194c0-4.5998 3.159-8.1125 8.337-9.0316l8.912-1.6111c-.288-2.0151-2.012-3.7443-4.888-3.7443-4.024 0-6.326 3.1634-6.326 3.1634l-4.597-4.5998s4.024-5.4643 11.497-5.4643c7.189 0 12.077 4.8902 12.077 11.2191v17.548h-7.763v-3.4515h-.288s-2.876 4.0256-8.338 4.0256c-5.173 0-8.623-3.4515-8.623-8.0535zm17.249-4.6066v-.5718l-6.326 1.1482c-2.012.3449-3.159 1.4387-3.159 2.8774 0 1.7269 1.147 2.8774 3.449 2.8774 3.45 0 6.036-2.5869 6.036-6.3312zm15.239-16.1047h7.761v4.0279h.29s2.876-4.602 8.337-4.602c5.752 0 10.35 4.602 10.35 11.7932v16.9716h-7.764v-15.8234c0-3.4515-2.012-5.4643-5.176-5.4643-3.449 0-6.037 2.5869-6.037 6.3289v14.9542h-7.761zm34.208 0h7.764v4.0279h.29s2.874-4.602 8.338-4.602c5.749 0 10.349 4.602 10.349 11.7932v16.9716h-7.764v-15.8234c0-3.4515-2.012-5.4643-5.176-5.4643-3.452 0-6.037 2.5869-6.037 6.3289v14.9542h-7.764zm32.488 14.0919c0-8.0512 6.611-14.6683 14.949-14.6683 8.337 0 14.948 6.6126 14.948 14.6706 0 8.0558-6.611 14.6706-14.948 14.6706-8.338 0-14.949-6.6194-14.949-14.6706zm22.138 0c0-4.3138-3.161-7.4771-7.189-7.4771-4.029 0-7.19 3.1633-7.19 7.4794s3.161 7.4771 7.19 7.4771c4.028 0 7.189-3.1633 7.189-7.4771zm13.511-14.0919h7.761v4.0279h.29s2.876-4.602 8.338-4.602c5.752 0 10.349 4.602 10.349 11.7932v16.9716h-7.764v-15.8234c0-3.4515-2.011-5.4643-5.175-5.4643-3.45 0-6.038 2.5869-6.038 6.3289v14.9542h-7.761z"/><path clip-rule="evenodd" d="m33.5965 48.4299c.4082.2337.8482.4675 1.2882.674 3.2774 1.5204 4.7992 2.5188 4.7992 4.6247 0 2.2556-1.8439 4.1005-4.0983 4.1005-1.7555 0-3.2184-1.112-3.8035-2.6641-1.0859 1.1127-2.3834 1.9968-3.816 2.6001-1.4327.6033-2.9715.9136-4.5259.9127-1.5371 0-3.0591-.303-4.4791-.8916s-2.7103-1.4513-3.797-2.5388c-1.0868-1.0875-1.9488-2.3786-2.5368-3.7995s-.8905-2.9438-.8902-4.4816c0-.615.0862-1.23.1747-1.8449-6.00128-1.7564-10.62355-6.7623-11.678192-13.0299-.1451544-.9077-.233608-1.8154-.233608-2.7526s.0884536-1.8449.233608-2.7526c1.084122-6.2358 5.676912-11.2735 11.678192-13.0299l-.0114-.0772c-.0839-.5854-.1656-1.1505-.1656-1.7677-.0003-1.5381.3023-3.06111.8905-4.48215.5881-1.42104 1.4503-2.71222 2.5373-3.7998 1.087-1.08757 2.3775-1.95022 3.7978-2.538672s2.9426-.89117588 4.4798-.89087778c3.2501 0 6.2054 1.34791978 8.3419 3.51276978.2865-.77933.8045-1.45229 1.4844-1.92851s1.4891-.732897 2.3191-.735568c2.2544 0 4.0983 1.844888 4.0983 4.100498 0 2.28285-1.5218 3.27904-4.7992 4.80169-.3224.15367-.6401.31712-.9525.49012l-.3357.1816c-.2631.1475-.5262.295-.7621.4402-.2041.118-.3787.2337-.5556.3517-.0555.0299-.1086.064-.1588.1022-.0516.0383-.1062.0724-.1633.1021-.9934.6444-1.9006 1.4069-2.7806 2.1966-.0273.0155-.0518.0354-.0726.059-.0227.0227-.0454.0454-.0726.059-.3515.3494-.7031.7034-1.0251 1.0529l-.1316.1475c-.0431.0499-.0862.1021-.1315.1452-.1382.1715-.2788.3409-.4219.5083-.22.2587-.4354.5152-.6305.7807-2.8383 3.7626-4.3791 8.3454-4.3909 13.0594-.002 4.7162 1.5403 9.3033 4.3909 13.0594.3635.5029.759.982 1.1839 1.4342.0454.0499.0885.1021.1316.1452.2427.2859.4989.5378.7598.7942l.2653.261c.0273.0155.0518.0354.0726.059.0227.0227.0454.0431.0726.059.8674.8039 1.7972 1.5377 2.7806 2.1943.059.0295.1111.0681.161.1021.0509.039.1047.0739.1611.1044l.2789.1748.2767.1747.3811.2201c.1247.0726.2495.1475.381.2201zm40.6773-34.7555c6.0013 1.7564 10.6235 6.7623 11.6782 13.0299.31 1.8806.31 3.7993 0 5.6799-1.0842 6.2358-5.6769 11.2735-11.6782 13.0299l.0114.0772c.0839.5854.1655 1.1505.1655 1.7677.0003 1.5382-.3023 3.0615-.8906 4.4827s-1.4507 2.7124-2.5379 3.8c-1.0873 1.0876-2.3781 1.9502-3.7986 2.5386-1.4206.5883-2.9431.8908-4.4805.8902-1.5536-.0022-3.0911-.3139-4.523-.917-1.4318-.6031-2.7293-1.4855-3.8166-2.5958-.2865.7794-.8045 1.4523-1.4844 1.9285-.6799.4763-1.4892.7329-2.3191.7356-1.0856-.003-2.126-.4357-2.8939-1.2035-.7678-.7679-1.2009-1.8085-1.2044-2.8947 0-2.2851 1.5218-3.2813 4.7991-4.804.3244-.1498.6351-.3177.9526-.4901l.3357-.1816c.2631-.1475.5262-.295.762-.4402.2042-.118.3788-.2337.5557-.3517.0555-.0299.1086-.064.1588-.1022.0516-.0384.1062-.0725.1633-.1021.9834-.6575 1.9132-1.392 2.7806-2.1966.0273-.0154.0519-.0354.0726-.059.0226-.0227.0453-.0431.0725-.0567.3516-.3517.7031-.7035 1.0252-1.0552l.1315-.1452c.0431-.0522.0862-.1044.1316-.1475.1361-.1725.2812-.3404.4218-.5083.22-.2587.4355-.5129.6306-.7807 2.7216-3.6307 4.3909-8.1692 4.3909-13.0594.0014-4.7155-1.5408-9.3016-4.3909-13.0571-.3635-.5038-.7589-.9836-1.184-1.4365-.0453-.0499-.0884-.1021-.1315-.1452-.3192-.373-.6616-.7254-1.0252-1.0552-.0272-.0156-.0517-.0355-.0725-.059-.021-.0227-.0455-.0419-.0726-.0567-.8748-.7959-1.8039-1.5299-2.7806-2.1966-.0563-.0298-.1102-.0639-.1611-.1021-.0521-.0364-.102-.0727-.161-.1022-.0884-.059-.1814-.118-.279-.177-.0932-.0565-.1855-.1148-.2767-.1747l-.381-.2201c-.5395-.3273-1.0959-.6258-1.667-.89409-3.2501-1.54988-4.8014-2.54607-4.8014-4.80169 0-2.25334 1.8439-4.098228 4.0983-4.098228 1.7555 0 3.2184 1.111928 3.8035 2.664078 1.0859-1.11276 2.3834-1.99682 3.816-2.60011 1.4327-.60329 2.9715-.913604 4.5259-.91266 1.537 0 3.059.302944 4.4791.89153 1.42.58859 2.7102 1.45128 3.797 2.53883 1.0868 1.08754 1.9488 2.37862 2.5368 3.79951.588 1.4209.8905 2.94373.8902 4.48163 0 .6127-.0862 1.2299-.1747 1.8449z" fill-rule="evenodd"/><path d="m55.8664 29.4546c.0009-1.6767-.3286-3.3371-.9695-4.8863-.641-1.5492-1.5809-2.9568-2.766-4.1423-1.185-1.1855-2.5921-2.1256-4.1406-2.7667-1.5485-.641-3.2081-.9703-4.8839-.9691-1.6758-.0009-3.3354.3287-4.8838.97-1.5483.6413-2.9552 1.5817-4.1401 2.7674-1.1848 1.1857-2.1245 2.5935-2.7652 4.1428s-.9698 3.2098-.9686 4.8865c-.0009 1.6765.3285 3.3367.9693 4.8858.6408 1.549 1.5805 2.9565 2.7653 4.142 1.1849 1.1854 2.5916 2.1256 4.1399 2.7668 1.5482.6411 3.2076.9707 4.8832.9698 1.6758.0012 3.3354-.3281 4.8839-.9692 1.5485-.641 2.9556-1.5811 4.1406-2.7666 1.1851-1.1855 2.125-2.5931 2.766-4.1423.6409-1.5492.9704-3.2096.9695-4.8863z"/></g></svg>